<?xml version="1.0" encoding="utf-8"?>
<!-- Generator: Adobe Illustrator 16.0.0, SVG Export Plug-In . SVG Version: 6.00 Build 0)  -->
<!DOCTYPE svg PUBLIC "-//W3C//DTD SVG 1.1//EN" "http://www.w3.org/Graphics/SVG/1.1/DTD/svg11.dtd">
<svg version="1.1" id="Layer_1" xmlns="http://www.w3.org/2000/svg" xmlns:xlink="http://www.w3.org/1999/xlink" x="0px" y="0px"
	 width="181px" height="25px" viewBox="0 0 181 25" enable-background="new 0 0 181 25" xml:space="preserve">
<rect x="9.578" y="5.614" fill="#B5ACA6" width="0.779" height="10.99"/>
<rect x="7.027" y="7.49" fill="#B5ACA6" width="0.779" height="7.237"/>
<rect x="85.672" y="4.484" transform="matrix(-0.8577 -0.5141 0.5141 -0.8577 154.7475 62.7838)" fill="#B5ACA6" width="0.779" height="10.989"/>
<rect x="85.668" y="12.697" transform="matrix(0.515 -0.8572 0.8572 0.515 32.9928 84.488)" fill="#B5ACA6" width="10.99" height="0.779"/>
<rect x="84.894" y="11.136" transform="matrix(0.5151 -0.8571 0.8571 0.5151 33.0434 81.4574)" fill="#B5ACA6" width="7.237" height="0.778"/>
<rect x="85.36" y="10.942" transform="matrix(0.5151 -0.8571 0.8571 0.5151 33.3363 81.5374)" fill="#B5ACA6" width="6.744" height="0.727"/>
<g>
	<defs>
		<rect id="SVGID_113_" x="83.5" y="5.289" width="14.713" height="14.711"/>
	</defs>
	<clipPath id="SVGID_2_">
		<use xlink:href="#SVGID_113_"  overflow="visible"/>
	</clipPath>
	<path clip-path="url(#SVGID_2_)" fill="#B5ACA6" d="M94.49,19.406c-0.381,0-0.699-0.107-0.953-0.322s-0.381-0.479-0.381-0.792
		c0-0.557,0.303-1.015,0.912-1.374c0.608-0.358,1.375-0.521,2.299-0.487v2.104C95.73,19.115,95.105,19.406,94.49,19.406
		 M92.438,18.292c0,0.475,0.176,0.877,0.528,1.209c0.353,0.333,0.78,0.499,1.29,0.499c0.697,0,1.402-0.278,2.111-0.836
		c0.028,0.337,0.074,0.562,0.139,0.671C96.568,19.945,96.684,20,96.85,20c0.289,0,0.743-0.234,1.364-0.704v-0.601
		c-0.505,0.401-0.824,0.601-0.961,0.601c-0.107,0-0.161-0.114-0.161-0.344v-4.2c0-0.571-0.198-1.008-0.594-1.308
		c-0.396-0.301-0.899-0.451-1.51-0.451c-0.688,0-1.414,0.239-2.177,0.718v0.74c0.738-0.571,1.425-0.856,2.06-0.856
		c0.996,0,1.496,0.459,1.496,1.378v0.856c-1.262,0.064-2.231,0.308-2.91,0.73C92.777,16.981,92.438,17.56,92.438,18.292"/>
</g>
<rect x="45" y="8.761" fill="#B5ACA6" width="0.725" height="10.239"/>
<rect x="47.4" y="6.535" fill="#B5ACA6" width="0.725" height="10.238"/>
<rect x="47.4" y="18.275" fill="#B5ACA6" width="6.742" height="0.725"/>
<g>
	<defs>
		<rect id="SVGID_115_" x="45" y="6.535" width="10.09" height="12.465"/>
	</defs>
	<clipPath id="SVGID_4_">
		<use xlink:href="#SVGID_115_"  overflow="visible"/>
	</clipPath>
	<path clip-path="url(#SVGID_4_)" fill="#B5ACA6" d="M51.367,16.18c-0.381,0-0.699-0.106-0.953-0.321
		c-0.254-0.216-0.381-0.479-0.381-0.792c0-0.558,0.304-1.016,0.912-1.374c0.608-0.359,1.375-0.522,2.299-0.488v2.104
		C52.607,15.889,51.982,16.18,51.367,16.18 M49.314,15.066c0,0.474,0.176,0.877,0.528,1.209c0.353,0.333,0.781,0.499,1.29,0.499
		c0.697,0,1.402-0.279,2.111-0.836c0.029,0.337,0.074,0.561,0.139,0.671c0.062,0.109,0.178,0.165,0.344,0.165
		c0.289,0,0.743-0.235,1.364-0.704v-0.602c-0.504,0.401-0.824,0.602-0.961,0.602c-0.106,0-0.161-0.115-0.161-0.345v-4.199
		c0-0.572-0.197-1.009-0.594-1.309c-0.395-0.301-0.899-0.451-1.51-0.451c-0.688,0-1.414,0.239-2.176,0.719v0.739
		c0.737-0.57,1.424-0.856,2.059-0.856c0.996,0,1.496,0.459,1.496,1.378v0.856c-1.262,0.064-2.231,0.308-2.91,0.73
		C49.654,13.755,49.314,14.333,49.314,15.066"/>
</g>
<rect x="4.75" y="9.761" fill="#B5ACA6" width="0.725" height="10.239"/>
<g>
	<defs>
		<rect id="SVGID_117_" x="4.5" y="6.258" width="12.805" height="13.742"/>
	</defs>
	<clipPath id="SVGID_6_">
		<use xlink:href="#SVGID_117_"  overflow="visible"/>
	</clipPath>
	<path clip-path="url(#SVGID_6_)" fill="#B5ACA6" d="M13.58,15.903c-0.381,0-0.699-0.106-0.953-0.321s-0.381-0.479-0.381-0.792
		c0-0.558,0.305-1.016,0.913-1.374c0.608-0.359,1.374-0.522,2.298-0.488v2.104C14.821,15.613,14.196,15.903,13.58,15.903
		 M11.528,14.79c0,0.474,0.176,0.877,0.528,1.209c0.352,0.333,0.781,0.499,1.289,0.499c0.699,0,1.402-0.279,2.111-0.836
		c0.029,0.337,0.075,0.561,0.139,0.671c0.063,0.109,0.179,0.165,0.345,0.165c0.289,0,0.743-0.235,1.364-0.704v-0.602
		c-0.504,0.401-0.824,0.602-0.961,0.602c-0.107,0-0.162-0.115-0.162-0.344v-4.2c0-0.572-0.197-1.008-0.594-1.309
		c-0.395-0.301-0.898-0.45-1.509-0.45c-0.688,0-1.415,0.238-2.177,0.718v0.74c0.738-0.571,1.424-0.857,2.059-0.857
		c0.998,0,1.496,0.459,1.496,1.378v0.857c-1.261,0.063-2.23,0.307-2.91,0.729C11.868,13.479,11.528,14.057,11.528,14.79"/>
</g>
<rect x="160" y="7.728" fill="#B5ACA6" width="0.725" height="10.239"/>
<rect x="165.566" y="7.761" fill="#B5ACA6" width="0.725" height="10.239"/>
<rect x="162.779" y="11.223" fill="#B5ACA6" width="0.726" height="6.744"/>
<g>
	<defs>
		<rect id="SVGID_119_" x="160" y="7.727" width="13.77" height="10.273"/>
	</defs>
	<clipPath id="SVGID_8_">
		<use xlink:href="#SVGID_119_"  overflow="visible"/>
	</clipPath>
	<path clip-path="url(#SVGID_8_)" fill="#B5ACA6" d="M170.045,17.406c-0.381,0-0.699-0.107-0.953-0.322s-0.381-0.479-0.381-0.792
		c0-0.557,0.305-1.015,0.913-1.374c0.608-0.358,1.374-0.521,2.298-0.487v2.104C171.286,17.115,170.661,17.406,170.045,17.406
		 M167.993,16.292c0,0.475,0.177,0.877,0.528,1.209c0.352,0.333,0.781,0.499,1.289,0.499c0.699,0,1.402-0.278,2.111-0.836
		c0.029,0.337,0.075,0.562,0.139,0.671c0.063,0.11,0.179,0.165,0.345,0.165c0.289,0,0.743-0.234,1.364-0.704v-0.601
		c-0.504,0.401-0.824,0.601-0.961,0.601c-0.107,0-0.162-0.114-0.162-0.344v-4.2c0-0.571-0.197-1.008-0.594-1.308
		c-0.395-0.301-0.898-0.451-1.508-0.451c-0.689,0-1.416,0.239-2.178,0.718v0.74c0.738-0.571,1.424-0.856,2.059-0.856
		c0.998,0,1.496,0.459,1.496,1.378v0.856c-1.261,0.064-2.23,0.308-2.91,0.73C168.333,14.981,167.993,15.56,167.993,16.292"/>
</g>
<rect x="123" y="8.994" fill="#B5ACA6" width="10.238" height="0.725"/>
<rect x="123" y="15.275" fill="#B5ACA6" width="10.238" height="0.725"/>
<rect x="126.497" y="12.134" fill="#B5ACA6" width="6.743" height="0.726"/>
<g>
	<defs>
		<rect id="SVGID_121_" x="123" y="8.993" width="17.296" height="7.007"/>
	</defs>
	<clipPath id="SVGID_10_">
		<use xlink:href="#SVGID_121_"  overflow="visible"/>
	</clipPath>
	<path clip-path="url(#SVGID_10_)" fill="#B5ACA6" d="M136.572,15.406c-0.381,0-0.699-0.107-0.953-0.322s-0.381-0.479-0.381-0.792
		c0-0.557,0.304-1.015,0.913-1.374c0.608-0.358,1.374-0.521,2.298-0.487v2.104C137.812,15.115,137.188,15.406,136.572,15.406
		 M134.52,14.292c0,0.475,0.177,0.877,0.529,1.209c0.352,0.333,0.78,0.499,1.289,0.499c0.698,0,1.402-0.278,2.111-0.836
		c0.029,0.337,0.075,0.562,0.139,0.671c0.063,0.11,0.178,0.165,0.344,0.165c0.289,0,0.744-0.234,1.365-0.704v-0.601
		c-0.505,0.401-0.824,0.601-0.962,0.601c-0.106,0-0.161-0.114-0.161-0.344v-4.2c0-0.571-0.197-1.008-0.594-1.308
		c-0.395-0.301-0.898-0.451-1.509-0.451c-0.688,0-1.415,0.239-2.177,0.718v0.74c0.738-0.571,1.424-0.856,2.059-0.856
		c0.997,0,1.496,0.459,1.496,1.378v0.856c-1.262,0.064-2.23,0.308-2.91,0.73C134.86,12.981,134.52,13.56,134.52,14.292"/>
</g>
</svg>
