<?xml version="1.0" encoding="utf-8"?>
<!-- Generator: Adobe Illustrator 16.0.0, SVG Export Plug-In . SVG Version: 6.00 Build 0)  -->
<!DOCTYPE svg PUBLIC "-//W3C//DTD SVG 1.1//EN" "http://www.w3.org/Graphics/SVG/1.1/DTD/svg11.dtd">
<svg version="1.1" id="Layer_1" xmlns="http://www.w3.org/2000/svg" xmlns:xlink="http://www.w3.org/1999/xlink" x="0px" y="0px"
	 width="36.75px" height="42px" viewBox="0 0 36.75 42" enable-background="new 0 0 36.75 42" xml:space="preserve">
<rect x="5.619" y="9.934" fill="#B5ACA6" width="1.948" height="27.488"/>
<rect x="12.062" y="3.957" fill="#B5ACA6" width="1.949" height="27.488"/>
<rect x="12.062" y="35.474" fill="#B5ACA6" width="18.103" height="1.948"/>
<g>
	<defs>
		<rect id="SVGID_103_" x="5.619" y="3.75" width="27.089" height="33.465"/>
	</defs>
	<clipPath id="SVGID_2_">
		<use xlink:href="#SVGID_103_"  overflow="visible"/>
	</clipPath>
	<path clip-path="url(#SVGID_2_)" fill="#B5ACA6" d="M22.71,29.645c-1.022,0-1.875-0.289-2.557-0.866
		c-0.683-0.577-1.023-1.285-1.023-2.125c0-1.495,0.816-2.725,2.449-3.688c1.634-0.964,3.689-1.4,6.17-1.31v5.647
		C26.042,28.864,24.365,29.645,22.71,29.645 M17.202,26.653c0,1.273,0.472,2.355,1.417,3.247c0.944,0.893,2.098,1.338,3.462,1.338
		c1.875,0,3.765-0.748,5.668-2.242c0.078,0.904,0.203,1.505,0.373,1.8s0.479,0.442,0.925,0.442c0.774,0,1.993-0.63,3.659-1.889
		v-1.614c-1.351,1.076-2.209,1.614-2.577,1.614c-0.288,0-0.433-0.308-0.433-0.925V17.149c0-1.534-0.531-2.705-1.594-3.512
		s-2.414-1.21-4.054-1.21c-1.849,0-3.798,0.643-5.844,1.928v1.989c1.981-1.536,3.824-2.303,5.531-2.303
		c2.676,0,4.014,1.233,4.014,3.699v2.303c-3.385,0.17-5.989,0.822-7.812,1.958C18.114,23.135,17.202,24.686,17.202,26.653"/>
</g>
</svg>
