<?xml version="1.0" encoding="utf-8"?>
<!-- Generator: Adobe Illustrator 16.0.0, SVG Export Plug-In . SVG Version: 6.00 Build 0)  -->
<!DOCTYPE svg PUBLIC "-//W3C//DTD SVG 1.1//EN" "http://www.w3.org/Graphics/SVG/1.1/DTD/svg11.dtd">
<svg version="1.1" id="Layer_1" xmlns="http://www.w3.org/2000/svg" xmlns:xlink="http://www.w3.org/1999/xlink" x="0px" y="0px"
	 width="28.801px" height="28.801px" viewBox="0 0 28.801 28.801" enable-background="new 0 0 28.801 28.801" xml:space="preserve">
<g>
	<defs>
		<rect id="SVGID_111_" x="1.834" y="1.983" width="25.184" height="25.183"/>
	</defs>
	<clipPath id="SVGID_2_">
		<use xlink:href="#SVGID_111_"  overflow="visible"/>
	</clipPath>
	<path clip-path="url(#SVGID_2_)" fill="#B5ACA6" d="M27.018,14.574c0,3.157,0,6.315,0,9.473c0,1.802-1.321,3.119-3.127,3.119
		c-6.315,0-12.631,0.001-18.945,0c-1.783,0-3.111-1.325-3.111-3.104c0-6.325,0-12.651,0-18.975c0-1.781,1.327-3.104,3.112-3.104
		c6.325-0.001,12.649-0.001,18.975,0c1.765,0,3.095,1.328,3.097,3.088C27.018,8.238,27.018,11.406,27.018,14.574"/>
	<path clip-path="url(#SVGID_2_)" fill="#FFFFFF" d="M24.108,12.659c-0.353,0.76-1.083,0.987-1.831,1.187
		c0.005,0.04,0.009,0.08,0.014,0.12c0.61,0.056,1.219,0.113,1.863,0.173c-0.479,0.539-1.116,0.757-1.805,0.799
		c-0.346,0.022-0.488,0.133-0.594,0.46c-0.734,2.288-2.316,3.849-4.431,4.85c-3.472,1.641-6.926,1.648-10.283-0.36
		c-0.927-0.555-1.698-1.3-2.345-2.187c1.068,0.772,2.236,1.195,3.566,1.147c1.332-0.048,2.449-0.552,3.467-1.494
		c-0.572-0.095-1.162-0.139-1.28-0.724c-0.058-0.289,0.201-0.643,0.325-0.988c-0.784-0.048-1.557-0.355-2.037-1.298
		c0.355-0.179,0.697-0.351,1.062-0.535c-0.933-0.321-1.691-0.805-1.881-1.92c0.338-0.063,0.658-0.125,1.018-0.193
		C8.105,11.104,7.4,10.451,7.452,9.322c1.379,0.224,5.043,2.083,6.545,3.318c0.728-1.727,1.382-3.498,3.028-4.694
		c0.018,0.109,0.031,0.182,0.044,0.263c0.396-0.152,0.797-0.306,1.303-0.499c-0.099,0.242-0.149,0.369-0.209,0.514
		c0.252-0.043,0.489-0.104,0.728-0.114c0.113-0.004,0.231,0.096,0.347,0.147c-0.068,0.11-0.111,0.276-0.208,0.319
		c-0.307,0.133-0.635,0.218-0.953,0.324c-0.068,0.024-0.137,0.059-0.294,0.125c1.765,0.145,2.89,1.068,3.635,2.513
		c0.134,0.257,0.269,0.534,0.304,0.814c0.061,0.5,0.385,0.595,0.771,0.558C23.032,12.857,23.566,12.746,24.108,12.659"/>
</g>
</svg>
