<?xml version="1.0" encoding="utf-8"?>
<!-- Generator: Adobe Illustrator 16.0.0, SVG Export Plug-In . SVG Version: 6.00 Build 0)  -->
<!DOCTYPE svg PUBLIC "-//W3C//DTD SVG 1.1//EN" "http://www.w3.org/Graphics/SVG/1.1/DTD/svg11.dtd">
<svg version="1.1" id="Layer_1" xmlns="http://www.w3.org/2000/svg" xmlns:xlink="http://www.w3.org/1999/xlink" x="0px" y="0px"
	 width="28.8px" height="28.801px" viewBox="0 0 28.8 28.801" enable-background="new 0 0 28.8 28.801" xml:space="preserve">
<rect x="16.566" y="9.983" fill="#FFFFFF" width="4.807" height="1.083"/>
<g>
	<defs>
		<rect id="SVGID_107_" x="1.667" y="1.817" width="25.184" height="25.183"/>
	</defs>
	<clipPath id="SVGID_2_">
		<use xlink:href="#SVGID_107_"  overflow="visible"/>
	</clipPath>
	<path clip-path="url(#SVGID_2_)" fill="#B5ACA6" d="M26.851,14.409c0,3.157,0,6.314,0,9.472c0,1.802-1.321,3.119-3.127,3.119
		c-6.315,0-12.631,0-18.945,0c-1.783,0-3.111-1.325-3.111-3.104c0-6.325,0-12.65,0-18.975c0-1.781,1.327-3.104,3.112-3.104
		c6.325-0.001,12.649-0.001,18.975,0c1.765,0,3.095,1.328,3.097,3.089C26.851,8.073,26.851,11.241,26.851,14.409"/>
	<path clip-path="url(#SVGID_2_)" fill="#FFFFFF" d="M7.515,13.052c1.103,0,2.17,0.029,3.233-0.013
		c0.448-0.019,0.87-0.218,1.044-0.708c0.296-0.839-0.079-1.562-0.956-1.633c-1.081-0.087-2.173-0.051-3.26-0.066
		c-0.017,0-0.033,0.021-0.062,0.04V13.052z M7.519,17.895c1.059,0,2.084,0.003,3.107-0.003c0.143-0.001,0.289-0.034,0.428-0.071
		c0.702-0.184,1.062-0.716,1.041-1.527c-0.018-0.736-0.38-1.191-1.123-1.296c-0.52-0.073-1.053-0.063-1.58-0.073
		c-0.619-0.011-1.238-0.002-1.873-0.002V17.895z M5.292,19.803V8.726c0.07-0.012,0.139-0.034,0.205-0.034
		c1.816,0.001,3.632-0.004,5.449,0.012c0.605,0.006,1.195,0.135,1.736,0.426c0.881,0.473,1.319,1.229,1.381,2.213
		c0.064,1.027-0.227,1.887-1.188,2.414c-0.043,0.023-0.081,0.055-0.121,0.083c0.021,0.023,0.034,0.046,0.051,0.052
		c1.844,0.704,1.953,3,1.162,4.31c-0.626,1.035-1.578,1.538-2.736,1.576c-1.949,0.063-3.9,0.045-5.851,0.061
		C5.362,19.837,5.344,19.822,5.292,19.803"/>
</g>
<rect x="16.616" y="9.34" fill="#FFFFFF" width="4.806" height="1.083"/>
<g>
	<defs>
		<rect id="SVGID_109_" x="1.667" y="1.817" width="25.184" height="25.183"/>
	</defs>
	<clipPath id="SVGID_4_">
		<use xlink:href="#SVGID_109_"  overflow="visible"/>
	</clipPath>
	<path clip-path="url(#SVGID_4_)" fill="#FFFFFF" d="M21,14.878c-0.028-1.053-0.762-1.739-1.839-1.744
		c-1.044-0.004-1.814,0.726-1.838,1.744H21z M23.216,16.317h-5.953c-0.072,1.104,0.69,1.978,1.752,2.049
		c0.773,0.053,1.447-0.1,1.881-0.823c0.031-0.052,0.113-0.102,0.17-0.103c0.674-0.006,1.348-0.004,2.098-0.004
		c-0.104,0.276-0.162,0.519-0.279,0.727c-0.443,0.788-1.078,1.375-1.938,1.669c-1.279,0.436-2.548,0.401-3.78-0.2
		c-1.059-0.516-1.729-1.337-1.955-2.5c-0.188-0.97-0.191-1.941,0.061-2.9c0.447-1.699,1.861-2.812,3.645-2.843
		c0.503-0.009,1.023,0.03,1.51,0.153c1.604,0.401,2.676,1.75,2.787,3.455C23.24,15.419,23.216,15.845,23.216,16.317"/>
</g>
</svg>
