<?xml version="1.0" encoding="utf-8"?>
<!-- Generator: Adobe Illustrator 16.0.0, SVG Export Plug-In . SVG Version: 6.00 Build 0)  -->
<!DOCTYPE svg PUBLIC "-//W3C//DTD SVG 1.1//EN" "http://www.w3.org/Graphics/SVG/1.1/DTD/svg11.dtd">
<svg version="1.1" id="Layer_1" xmlns="http://www.w3.org/2000/svg" xmlns:xlink="http://www.w3.org/1999/xlink" x="0px" y="0px"
	 width="28.8px" height="28.8px" viewBox="0 0 28.8 28.8" enable-background="new 0 0 28.8 28.8" xml:space="preserve">
<g>
	<defs>
		<rect id="SVGID_105_" x="1.667" y="1.817" width="25.183" height="25.183"/>
	</defs>
	<clipPath id="SVGID_2_">
		<use xlink:href="#SVGID_105_"  overflow="visible"/>
	</clipPath>
	<path clip-path="url(#SVGID_2_)" fill="#B5ACA6" d="M14.234,17.751c1.818,0.001,3.296-1.465,3.295-3.268
		c-0.002-1.788-1.483-3.271-3.268-3.273c-1.815-0.001-3.285,1.463-3.283,3.275C10.979,16.293,12.432,17.749,14.234,17.751
		 M8.467,10.175V6.173C8.13,6.171,7.984,6.273,7.996,6.622c0.027,0.845,0.008,1.689,0.008,2.535v1.019H7.309V6.672
		c-0.666,0.492-1.136,1.08-1.242,1.816c-0.141,0.979-0.135,1.978-0.193,2.98c0.146,0.014,0.205,0.025,0.264,0.025
		c1.619,0.001,3.238,0.006,4.858-0.008c0.132-0.001,0.288-0.087,0.392-0.179c1.646-1.463,4.111-1.457,5.744,0.012
		c0.107,0.097,0.28,0.167,0.422,0.168c1.568,0.013,3.137,0.009,4.705,0.008c0.1,0,0.198-0.011,0.332-0.017
		c0-0.718,0.012-1.418-0.002-2.117c-0.044-2.169-1.832-3.351-3.415-3.32c-2.829,0.052-5.661,0.015-8.493,0.015h-0.377v4.109H9.604
		V6.08H9.15v4.095H8.467z M5.951,12.05c-0.01,0.071-0.023,0.13-0.023,0.188c0,2.404-0.019,4.809,0.004,7.211
		c0.022,2.175,1.83,3.351,3.407,3.327c3.32-0.049,6.642-0.014,9.962-0.017c0.192,0,0.389-0.006,0.576-0.043
		c1.625-0.32,2.703-1.631,2.711-3.327c0.012-2.363,0.004-4.726,0.002-7.09c0-0.079-0.012-0.157-0.02-0.252h-4.805
		c0.619,0.954,0.862,1.961,0.707,3.052c-0.16,1.108-0.687,2.015-1.553,2.717c-1.48,1.201-3.641,1.251-5.171,0.136
		c-0.782-0.572-1.327-1.32-1.595-2.249c-0.369-1.282-0.166-2.493,0.568-3.653H5.951z M26.85,14.409c0,3.156,0,6.314,0,9.472
		c0,1.802-1.32,3.119-3.127,3.119c-6.314,0-12.629,0.001-18.944,0c-1.783,0-3.111-1.325-3.111-3.104c0-6.325,0-12.649,0-18.975
		c0-1.781,1.327-3.104,3.112-3.104c6.324-0.001,12.65-0.001,18.975,0c1.764,0,3.096,1.328,3.096,3.088
		C26.85,8.073,26.85,11.24,26.85,14.409"/>
	<path clip-path="url(#SVGID_2_)" fill="#FFFFFF" d="M5.951,12.05h4.772c-0.736,1.16-0.938,2.371-0.569,3.652
		c0.268,0.931,0.812,1.678,1.596,2.249c1.528,1.116,3.689,1.066,5.17-0.135c0.867-0.702,1.393-1.609,1.552-2.717
		c0.155-1.09-0.087-2.098-0.705-3.052h4.803c0.009,0.095,0.021,0.174,0.021,0.253c0,2.362,0.009,4.726-0.002,7.089
		c-0.008,1.697-1.086,3.007-2.711,3.327c-0.188,0.037-0.385,0.043-0.576,0.043c-3.321,0.003-6.643-0.032-9.961,0.017
		c-1.578,0.024-3.387-1.152-3.407-3.327c-0.024-2.402-0.007-4.807-0.005-7.211C5.928,12.18,5.942,12.121,5.951,12.05"/>
	<path clip-path="url(#SVGID_2_)" fill="#FFFFFF" d="M19.668,10.293c0.284,0,0.569,0.006,0.854-0.001
		c0.36-0.008,0.555-0.192,0.559-0.543c0.007-0.602,0.009-1.202-0.001-1.804c-0.004-0.332-0.203-0.527-0.537-0.532
		c-0.58-0.007-1.16-0.005-1.74,0c-0.342,0.003-0.551,0.177-0.562,0.513c-0.019,0.621-0.019,1.242,0.002,1.863
		c0.011,0.324,0.213,0.493,0.538,0.502C19.076,10.3,19.372,10.293,19.668,10.293 M8.467,10.175H9.15V6.08h0.451v4.085h0.701v-4.11
		h0.377c2.832,0,5.664,0.038,8.494-0.015c1.582-0.029,3.369,1.152,3.414,3.32c0.014,0.7,0.002,1.4,0.002,2.118
		c-0.134,0.006-0.232,0.017-0.332,0.017c-1.567,0.001-3.137,0.005-4.705-0.007c-0.143-0.002-0.314-0.072-0.422-0.169
		c-1.633-1.469-4.099-1.475-5.744-0.012c-0.104,0.092-0.26,0.178-0.393,0.179c-1.619,0.013-3.238,0.009-4.857,0.008
		c-0.059,0-0.116-0.012-0.264-0.025c0.059-1.003,0.053-2.002,0.194-2.979c0.106-0.737,0.575-1.325,1.241-1.817v3.503h0.695V9.158
		c0-0.847,0.019-1.692-0.008-2.536C7.985,6.273,8.129,6.171,8.467,6.173V10.175z"/>
	<path clip-path="url(#SVGID_2_)" fill="#FFFFFF" d="M11.834,14.489c0,1.354,1.062,2.422,2.414,2.426
		c1.369,0.004,2.437-1.064,2.435-2.435c-0.001-1.357-1.063-2.423-2.413-2.425C12.896,12.055,11.834,13.116,11.834,14.489
		 M14.234,17.75c-1.803-0.002-3.256-1.458-3.257-3.264c0-1.812,1.468-3.278,3.284-3.276c1.783,0.001,3.265,1.485,3.268,3.273
		C17.531,16.285,16.052,17.752,14.234,17.75"/>
	<path clip-path="url(#SVGID_2_)" fill="#B5ACA6" d="M19.667,10.293c-0.295,0-0.591,0.006-0.886-0.002
		c-0.325-0.009-0.527-0.178-0.538-0.503c-0.019-0.62-0.021-1.242-0.002-1.862c0.01-0.336,0.22-0.51,0.562-0.514
		c0.58-0.005,1.16-0.006,1.74,0.001c0.334,0.004,0.533,0.2,0.538,0.533c0.009,0.601,0.007,1.202,0,1.802
		c-0.004,0.353-0.198,0.536-0.56,0.544C20.238,10.298,19.952,10.293,19.667,10.293"/>
	<path clip-path="url(#SVGID_2_)" fill="#B5ACA6" d="M11.834,14.489c0-1.373,1.062-2.436,2.436-2.434
		c1.351,0.001,2.412,1.067,2.414,2.425c0,1.37-1.067,2.438-2.436,2.435C12.896,16.912,11.834,15.843,11.834,14.489"/>
</g>
</svg>
